G04*
G04 #@! TF.GenerationSoftware,Altium Limited,Altium Designer,21.0.9 (235)*
G04*
G04 Layer_Color=16711935*
%FSLAX25Y25*%
%MOIN*%
G70*
G04*
G04 #@! TF.SameCoordinates,CEEBEC93-FDC5-4B9E-8111-BC73F9B13B43*
G04*
G04*
G04 #@! TF.FilePolarity,Positive*
G04*
G01*
G75*
%ADD40C,0.00394*%
D40*
X4000Y202000D02*
X4000D01*
X4000D02*
X4000Y202000D01*
X30095Y200406D02*
X29881Y201203D01*
X29297Y201786D01*
X28500Y202000D01*
X68000Y202000D02*
X68000D01*
X68000D02*
X68000Y202000D01*
X43500D02*
X42703Y201786D01*
X42119Y201203D01*
X41906Y200406D01*
X30095D02*
X30175Y199434D01*
X30415Y198488D01*
X30806Y197595D01*
X31340Y196778D01*
X32000Y196061D01*
X32770Y195462D01*
X33628Y194997D01*
X34550Y194681D01*
X35512Y194520D01*
X36488D01*
X37450Y194681D01*
X38372Y194997D01*
X39230Y195462D01*
X40000Y196061D01*
X40660Y196778D01*
X41194Y197595D01*
X41585Y198488D01*
X41825Y199434D01*
X41906Y200406D01*
X0Y4000D02*
X136Y2965D01*
X536Y2000D01*
X1172Y1172D01*
X2000Y536D01*
X2965Y136D01*
X4000Y0D01*
Y202000D02*
X2965Y201864D01*
X2000Y201464D01*
X1172Y200828D01*
X536Y200000D01*
X136Y199035D01*
X0Y198000D01*
X72000D02*
X71864Y199035D01*
X71464Y200000D01*
X70828Y200828D01*
X70000Y201464D01*
X69035Y201864D01*
X68000Y202000D01*
Y0D02*
X69035Y136D01*
X70000Y536D01*
X70828Y1172D01*
X71464Y2000D01*
X71864Y2965D01*
X72000Y4000D01*
X4000Y202000D02*
X28500D01*
X43500D02*
X68000D01*
X72000Y4000D02*
Y198000D01*
X4000Y0D02*
X68000D01*
X0Y4000D02*
Y198000D01*
M02*
