M48
;Layer_Color=9474304
;FILE_FORMAT=2:5
INCH,TZ
;TYPE=PLATED
T1F00S00C0.01181
T2F00S00C0.03150
T3F00S00C0.07087
%
T01
X19181Y26121
X21236Y47079
X13600Y49600
X16600Y67600
X17900Y94100
X19366Y100016
X25665Y96946
X32981Y94394
X36000Y101000
X42294Y100510
X44174Y106315
X52713Y105455
X52627Y102701
X62483Y102282
X50200Y94394
X41100Y89800
X40000Y85000
X44465Y84500
X43283Y73315
X41020Y63220
X43283Y60500
X45941Y63000
X33246Y82476
X36450Y112314
X41107Y113712
X31669Y114515
Y118600
X34622
X33933Y127760
X38461Y134960
X41264Y135629
X43935Y136309
X44319Y132193
X49252Y135684
X51915Y136486
X58110Y135545
X56600Y120800
X53260Y123753
X51417Y118600
X21630Y115668
X23402Y113445
X24174Y110145
X26945Y109955
X21000Y109700
X8700Y111200
X14603Y119257
X29700Y136000
X30400Y39100
X52819Y27602
X48000Y5500
X51516Y166311
X41200Y164400
X34900Y164300
X25600Y172299
X18242Y177212
X23000Y183800
X19924Y194500
X48978Y190823
T02
X6000Y6000
Y16000
Y26000
Y36000
Y46000
Y56000
Y66000
Y76000
Y86000
Y96000
Y106000
Y116000
Y126000
Y136000
X66000
Y126000
Y116000
Y106000
Y96000
Y86000
Y76000
Y66000
Y56000
Y46000
Y36000
Y26000
Y16000
Y6000
Y146000
Y156000
Y166000
Y176000
Y186000
Y196000
X6000
Y186000
Y176000
Y166000
Y156000
Y146000
T03
X18000Y12500
X30000
X42000
X54000
X36000Y182500
M30
