G04*
G04 #@! TF.GenerationSoftware,Altium Limited,Altium Designer,21.0.9 (235)*
G04*
G04 Layer_Physical_Order=2*
G04 Layer_Color=16711680*
%FSLAX25Y25*%
%MOIN*%
G70*
G04*
G04 #@! TF.SameCoordinates,CEEBEC93-FDC5-4B9E-8111-BC73F9B13B43*
G04*
G04*
G04 #@! TF.FilePolarity,Positive*
G04*
G01*
G75*
%ADD14C,0.01575*%
%ADD15C,0.00984*%
%ADD16C,0.01181*%
%ADD17C,0.06693*%
%ADD18R,0.06693X0.06693*%
%ADD19C,0.07087*%
%ADD20C,0.01968*%
G04:AMPARAMS|DCode=21|XSize=45.28mil|YSize=57.09mil|CornerRadius=11.32mil|HoleSize=0mil|Usage=FLASHONLY|Rotation=180.000|XOffset=0mil|YOffset=0mil|HoleType=Round|Shape=RoundedRectangle|*
%AMROUNDEDRECTD21*
21,1,0.04528,0.03445,0,0,180.0*
21,1,0.02264,0.05709,0,0,180.0*
1,1,0.02264,-0.01132,0.01722*
1,1,0.02264,0.01132,0.01722*
1,1,0.02264,0.01132,-0.01722*
1,1,0.02264,-0.01132,-0.01722*
%
%ADD21ROUNDEDRECTD21*%
%ADD22R,0.04134X0.03937*%
G04:AMPARAMS|DCode=23|XSize=59.06mil|YSize=118.11mil|CornerRadius=7.38mil|HoleSize=0mil|Usage=FLASHONLY|Rotation=0.000|XOffset=0mil|YOffset=0mil|HoleType=Round|Shape=RoundedRectangle|*
%AMROUNDEDRECTD23*
21,1,0.05906,0.10335,0,0,0.0*
21,1,0.04429,0.11811,0,0,0.0*
1,1,0.01476,0.02215,-0.05167*
1,1,0.01476,-0.02215,-0.05167*
1,1,0.01476,-0.02215,0.05167*
1,1,0.01476,0.02215,0.05167*
%
%ADD23ROUNDEDRECTD23*%
%ADD24R,0.06299X0.03937*%
%ADD25R,0.03740X0.03543*%
G04:AMPARAMS|DCode=26|XSize=23.62mil|YSize=39.37mil|CornerRadius=5.91mil|HoleSize=0mil|Usage=FLASHONLY|Rotation=0.000|XOffset=0mil|YOffset=0mil|HoleType=Round|Shape=RoundedRectangle|*
%AMROUNDEDRECTD26*
21,1,0.02362,0.02756,0,0,0.0*
21,1,0.01181,0.03937,0,0,0.0*
1,1,0.01181,0.00591,-0.01378*
1,1,0.01181,-0.00591,-0.01378*
1,1,0.01181,-0.00591,0.01378*
1,1,0.01181,0.00591,0.01378*
%
%ADD26ROUNDEDRECTD26*%
%ADD27O,0.05512X0.01181*%
%ADD28O,0.01181X0.05512*%
%ADD29R,0.03937X0.04134*%
G36*
X68293Y200980D02*
X68869Y200866D01*
X69412Y200641D01*
X69423Y200634D01*
X69271Y200134D01*
X61866D01*
Y191866D01*
X70134D01*
Y199271D01*
X70634Y199423D01*
X70641Y199412D01*
X70866Y198869D01*
X70981Y198293D01*
Y198000D01*
Y4000D01*
Y3706D01*
X70866Y3131D01*
X70641Y2588D01*
X70315Y2100D01*
X69900Y1685D01*
X69412Y1359D01*
X68869Y1134D01*
X68294Y1020D01*
X3706D01*
X3131Y1134D01*
X2588Y1359D01*
X2100Y1685D01*
X1685Y2100D01*
X1359Y2588D01*
X1134Y3131D01*
X1020Y3706D01*
Y4000D01*
Y198000D01*
Y198294D01*
X1134Y198869D01*
X1359Y199412D01*
X1366Y199423D01*
X1866Y199271D01*
Y191866D01*
X10134D01*
Y200134D01*
X2729D01*
X2577Y200634D01*
X2588Y200641D01*
X3131Y200866D01*
X3706Y200980D01*
X4000Y200980D01*
X28614D01*
X28826Y200893D01*
X28987Y200731D01*
X29075Y200520D01*
Y200406D01*
X29080Y200381D01*
X29076Y200356D01*
X29105Y199777D01*
X29123Y199703D01*
Y199628D01*
X29349Y198492D01*
X29387Y198400D01*
X29407Y198301D01*
X29850Y197231D01*
X29906Y197148D01*
X29944Y197055D01*
X30587Y196093D01*
X30658Y196022D01*
X30714Y195938D01*
X31533Y195120D01*
X31616Y195064D01*
X31687Y194993D01*
X32650Y194350D01*
X32743Y194311D01*
X32826Y194255D01*
X33895Y193812D01*
X33994Y193793D01*
X34087Y193754D01*
X35222Y193528D01*
X35323D01*
X35421Y193509D01*
X36579D01*
X36677Y193528D01*
X36778D01*
X37913Y193754D01*
X38006Y193793D01*
X38104Y193812D01*
X39174Y194255D01*
X39257Y194311D01*
X39350Y194350D01*
X40313Y194993D01*
X40384Y195064D01*
X40467Y195120D01*
X41286Y195938D01*
X41342Y196022D01*
X41413Y196093D01*
X42056Y197055D01*
X42094Y197148D01*
X42150Y197231D01*
X42593Y198301D01*
X42613Y198400D01*
X42651Y198492D01*
X42877Y199628D01*
Y199703D01*
X42895Y199777D01*
X42924Y200356D01*
X42920Y200381D01*
X42925Y200406D01*
Y200520D01*
X43013Y200731D01*
X43174Y200893D01*
X43386Y200980D01*
X44868D01*
X45075Y200481D01*
X43983Y199388D01*
X43635Y198867D01*
X43512Y198253D01*
X43512Y198253D01*
Y189710D01*
X43371Y189498D01*
X43264Y188961D01*
Y186395D01*
X42777Y186175D01*
X40150Y188802D01*
Y189000D01*
X31850D01*
Y186531D01*
X33319D01*
X33488Y186031D01*
X32911Y185589D01*
X32217Y184684D01*
X31781Y183631D01*
X31687Y182919D01*
X31484Y182813D01*
X31163Y182765D01*
X30434Y183493D01*
X29978Y183798D01*
X29658Y183862D01*
Y188209D01*
X24342D01*
Y185635D01*
X23843Y185368D01*
X23691Y185469D01*
X23000Y185606D01*
X22309Y185469D01*
X21723Y185077D01*
X21331Y184491D01*
X21194Y183800D01*
X21331Y183109D01*
X21723Y182523D01*
X22243Y182175D01*
X22266Y182141D01*
X24342Y180064D01*
Y176791D01*
X28843D01*
Y176752D01*
X28950Y176214D01*
X29255Y175759D01*
X30507Y174506D01*
X30962Y174202D01*
X31500Y174095D01*
X32063D01*
Y172744D01*
X32063Y172744D01*
X31974Y172281D01*
X31621Y172045D01*
X31621Y172045D01*
X9965Y150388D01*
X9617Y149867D01*
X9494Y149253D01*
X9494Y149253D01*
Y149014D01*
X9021Y148854D01*
X8948Y148948D01*
X8085Y149611D01*
X7079Y150027D01*
X6000Y150170D01*
X4921Y150027D01*
X3915Y149611D01*
X3052Y148948D01*
X2389Y148085D01*
X1973Y147079D01*
X1830Y146000D01*
X1973Y144921D01*
X2389Y143915D01*
X3052Y143052D01*
X3915Y142389D01*
X4921Y141973D01*
X6000Y141831D01*
X7079Y141973D01*
X8085Y142389D01*
X8948Y143052D01*
X9021Y143146D01*
X9494Y142986D01*
Y139014D01*
X9021Y138854D01*
X8948Y138948D01*
X8085Y139611D01*
X7079Y140027D01*
X6000Y140170D01*
X4921Y140027D01*
X3915Y139611D01*
X3052Y138948D01*
X2389Y138085D01*
X1973Y137079D01*
X1830Y136000D01*
X1973Y134921D01*
X2389Y133915D01*
X3052Y133052D01*
X3915Y132389D01*
X4921Y131973D01*
X6000Y131831D01*
X7079Y131973D01*
X8085Y132389D01*
X8948Y133052D01*
X9611Y133915D01*
X9727Y134195D01*
X10317Y134313D01*
X11708Y132921D01*
Y123588D01*
X11708Y123588D01*
X11830Y122974D01*
X12178Y122453D01*
X12998Y121633D01*
Y120213D01*
X12625Y120030D01*
X12479Y120025D01*
X9167Y123337D01*
X9611Y123915D01*
X10028Y124921D01*
X10170Y126000D01*
X10028Y127079D01*
X9611Y128085D01*
X8948Y128948D01*
X8085Y129611D01*
X7079Y130027D01*
X6000Y130169D01*
X4921Y130027D01*
X3915Y129611D01*
X3052Y128948D01*
X2389Y128085D01*
X1973Y127079D01*
X1830Y126000D01*
X1973Y124921D01*
X2389Y123915D01*
X3052Y123052D01*
X3915Y122389D01*
X4921Y121973D01*
X6000Y121830D01*
X6869Y121945D01*
X11178Y117636D01*
X11014Y117093D01*
X10856Y117062D01*
X10560Y116864D01*
X10033Y117039D01*
X10028Y117079D01*
X9611Y118085D01*
X8948Y118948D01*
X8085Y119611D01*
X7079Y120027D01*
X6000Y120169D01*
X4921Y120027D01*
X3915Y119611D01*
X3052Y118948D01*
X2389Y118085D01*
X1973Y117079D01*
X1830Y116000D01*
X1973Y114921D01*
X2389Y113915D01*
X3052Y113052D01*
X3915Y112389D01*
X4921Y111973D01*
X6000Y111830D01*
X6523Y111899D01*
X6943Y111450D01*
X6894Y111200D01*
X6981Y110759D01*
X6622Y110315D01*
X6601Y110305D01*
X6500Y110318D01*
Y106000D01*
Y101682D01*
X7135Y101765D01*
X8192Y102203D01*
X9100Y102900D01*
X9567Y103509D01*
X10096Y103415D01*
X10394Y102969D01*
X10096Y102522D01*
X9989Y101984D01*
X10096Y101447D01*
X10394Y101000D01*
X10096Y100553D01*
X9989Y100016D01*
X10096Y99478D01*
X10394Y99032D01*
X10096Y98585D01*
X10041Y98308D01*
X9979Y98276D01*
X9512Y98214D01*
X8948Y98948D01*
X8085Y99611D01*
X7079Y100027D01*
X6000Y100170D01*
X4921Y100027D01*
X3915Y99611D01*
X3052Y98948D01*
X2389Y98085D01*
X1973Y97079D01*
X1830Y96000D01*
X1973Y94921D01*
X2389Y93915D01*
X3052Y93052D01*
X3915Y92389D01*
X4921Y91973D01*
X6000Y91830D01*
X7079Y91973D01*
X8085Y92389D01*
X8948Y93052D01*
X9131Y93290D01*
X9741Y93270D01*
X9741Y93010D01*
X6796Y90065D01*
X6000Y90170D01*
X4921Y90027D01*
X3915Y89611D01*
X3052Y88948D01*
X2389Y88085D01*
X1973Y87079D01*
X1830Y86000D01*
X1973Y84921D01*
X2389Y83915D01*
X3052Y83052D01*
X3915Y82389D01*
X4921Y81973D01*
X6000Y81831D01*
X7079Y81973D01*
X7101Y81982D01*
X7433Y81755D01*
X7550Y81626D01*
Y80374D01*
X7087Y80033D01*
X7050Y80031D01*
X6000Y80169D01*
X4921Y80027D01*
X3915Y79611D01*
X3052Y78948D01*
X2389Y78085D01*
X1973Y77079D01*
X1830Y76000D01*
X1973Y74921D01*
X2389Y73915D01*
X3052Y73052D01*
X3915Y72389D01*
X4921Y71973D01*
X6000Y71830D01*
X7079Y71973D01*
X8085Y72389D01*
X8821Y72954D01*
X9321Y72774D01*
Y71166D01*
X7859Y69704D01*
X7079Y70027D01*
X6000Y70170D01*
X4921Y70027D01*
X3915Y69611D01*
X3052Y68948D01*
X2389Y68085D01*
X1973Y67079D01*
X1830Y66000D01*
X1973Y64921D01*
X2389Y63915D01*
X3052Y63052D01*
X3915Y62389D01*
X4921Y61973D01*
X6000Y61831D01*
X7079Y61973D01*
X8085Y62389D01*
X8948Y63052D01*
X9611Y63915D01*
X10028Y64921D01*
X10170Y66000D01*
X10028Y67079D01*
X9704Y67859D01*
X10631Y68786D01*
X11093Y68595D01*
Y62938D01*
X7859Y59704D01*
X7079Y60027D01*
X6000Y60170D01*
X4921Y60027D01*
X3915Y59611D01*
X3052Y58948D01*
X2389Y58085D01*
X1973Y57079D01*
X1830Y56000D01*
X1973Y54921D01*
X2389Y53915D01*
X3052Y53052D01*
X3915Y52389D01*
X4921Y51973D01*
X6000Y51831D01*
X7079Y51973D01*
X8085Y52389D01*
X8948Y53052D01*
X9611Y53915D01*
X10028Y54921D01*
X10170Y56000D01*
X10028Y57079D01*
X9704Y57859D01*
X13320Y61475D01*
X13603Y61898D01*
X13702Y62398D01*
Y68180D01*
X14298D01*
X14364Y68100D01*
X18836D01*
X18902Y68180D01*
X19568D01*
X19932Y67850D01*
Y61777D01*
X7859Y49704D01*
X7079Y50027D01*
X6000Y50169D01*
X4921Y50027D01*
X3915Y49611D01*
X3052Y48948D01*
X2389Y48085D01*
X1973Y47079D01*
X1830Y46000D01*
X1973Y44921D01*
X2389Y43915D01*
X3052Y43052D01*
X3915Y42389D01*
X4921Y41973D01*
X6000Y41831D01*
X7079Y41973D01*
X8085Y42389D01*
X8948Y43052D01*
X9611Y43915D01*
X10028Y44921D01*
X10170Y46000D01*
X10028Y47079D01*
X9704Y47859D01*
X11311Y49466D01*
X11853Y49301D01*
X11931Y48909D01*
X12295Y48364D01*
Y44140D01*
X7859Y39704D01*
X7079Y40027D01*
X6000Y40170D01*
X4921Y40027D01*
X3915Y39611D01*
X3052Y38948D01*
X2389Y38085D01*
X1973Y37079D01*
X1830Y36000D01*
X1973Y34921D01*
X2389Y33915D01*
X3052Y33052D01*
X3915Y32389D01*
X4921Y31973D01*
X6000Y31830D01*
X7079Y31973D01*
X8085Y32389D01*
X8948Y33052D01*
X9611Y33915D01*
X10028Y34921D01*
X10170Y36000D01*
X10028Y37079D01*
X9704Y37859D01*
X14523Y42678D01*
X14805Y43101D01*
X14905Y43600D01*
Y48364D01*
X15269Y48909D01*
X15406Y49600D01*
X15269Y50291D01*
X14877Y50877D01*
X14291Y51269D01*
X13899Y51347D01*
X13734Y51889D01*
X22159Y60314D01*
X22442Y60737D01*
X22541Y61236D01*
Y74625D01*
X23041Y75021D01*
X23205Y74989D01*
X23742Y75096D01*
X24009Y75274D01*
X24026Y75247D01*
X24553Y74896D01*
X24673Y74871D01*
Y78559D01*
X25673D01*
Y74529D01*
X25837Y74394D01*
Y46503D01*
X8571Y29237D01*
X8085Y29611D01*
X7079Y30027D01*
X6000Y30169D01*
X4921Y30027D01*
X3915Y29611D01*
X3052Y28948D01*
X2389Y28085D01*
X1973Y27079D01*
X1830Y26000D01*
X1973Y24921D01*
X2389Y23915D01*
X3052Y23052D01*
X3915Y22389D01*
X4921Y21973D01*
X6000Y21831D01*
X7079Y21973D01*
X8085Y22389D01*
X8948Y23052D01*
X9611Y23915D01*
X10028Y24921D01*
X10495Y24806D01*
Y22340D01*
X7859Y19704D01*
X7079Y20027D01*
X6000Y20169D01*
X4921Y20027D01*
X3915Y19611D01*
X3052Y18948D01*
X2389Y18085D01*
X1973Y17079D01*
X1830Y16000D01*
X1973Y14921D01*
X2389Y13915D01*
X3052Y13052D01*
X3915Y12389D01*
X4921Y11972D01*
X6000Y11830D01*
X7079Y11972D01*
X8085Y12389D01*
X8948Y13052D01*
X9611Y13915D01*
X10028Y14921D01*
X10170Y16000D01*
X10028Y17079D01*
X9704Y17859D01*
X11804Y19959D01*
X12266Y19768D01*
Y15432D01*
X6887Y10053D01*
X6000Y10170D01*
X4921Y10028D01*
X3915Y9611D01*
X3052Y8948D01*
X2389Y8085D01*
X1973Y7079D01*
X1830Y6000D01*
X1973Y4921D01*
X2389Y3915D01*
X3052Y3052D01*
X3915Y2389D01*
X4921Y1973D01*
X6000Y1830D01*
X7079Y1973D01*
X8085Y2389D01*
X8948Y3052D01*
X9611Y3915D01*
X10028Y4921D01*
X10170Y6000D01*
X10028Y7079D01*
X9611Y8085D01*
X9176Y8652D01*
X13201Y12676D01*
X13644Y12412D01*
X13781Y11370D01*
X14217Y10316D01*
X14911Y9411D01*
X15488Y8969D01*
X15319Y8468D01*
X13850D01*
Y6000D01*
X18000D01*
Y5500D01*
X18500D01*
Y2531D01*
X22150D01*
Y3894D01*
X25850D01*
Y2531D01*
X29500D01*
Y5500D01*
X30500D01*
Y2531D01*
X34150D01*
Y3894D01*
X37850D01*
Y2531D01*
X41500D01*
Y5500D01*
X42500D01*
Y2531D01*
X46150D01*
Y3894D01*
X46832D01*
X47226Y3631D01*
X47500Y3576D01*
Y5500D01*
Y7424D01*
X47226Y7369D01*
X46832Y7106D01*
X46150D01*
Y8468D01*
X44681D01*
X44512Y8969D01*
X45089Y9411D01*
X45783Y10316D01*
X46219Y11370D01*
X46368Y12500D01*
X46219Y13631D01*
X45783Y14684D01*
X45089Y15589D01*
X44235Y16244D01*
X44239Y16415D01*
X44376Y16744D01*
X45937D01*
Y22256D01*
X43405D01*
Y24949D01*
X43686Y25291D01*
X46171D01*
X50036Y21426D01*
Y20878D01*
X50063Y20742D01*
Y16744D01*
X51624D01*
X51761Y16415D01*
X51765Y16244D01*
X50911Y15589D01*
X50217Y14684D01*
X49781Y13631D01*
X49632Y12500D01*
X49781Y11370D01*
X50217Y10316D01*
X50911Y9411D01*
X51488Y8969D01*
X51319Y8468D01*
X49850D01*
Y7106D01*
X49169D01*
X48774Y7369D01*
X48500Y7424D01*
Y5500D01*
Y3576D01*
X48774Y3631D01*
X49169Y3894D01*
X49850D01*
Y2531D01*
X53500D01*
Y5500D01*
X54000D01*
Y6000D01*
X58150D01*
Y8468D01*
X56681D01*
X56512Y8969D01*
X57089Y9411D01*
X57783Y10316D01*
X58219Y11370D01*
X58356Y12412D01*
X58799Y12676D01*
X62824Y8652D01*
X62389Y8085D01*
X61973Y7079D01*
X61831Y6000D01*
X61973Y4921D01*
X62389Y3915D01*
X63052Y3052D01*
X63915Y2389D01*
X64921Y1973D01*
X66000Y1830D01*
X67079Y1973D01*
X68085Y2389D01*
X68948Y3052D01*
X69611Y3915D01*
X70027Y4921D01*
X70170Y6000D01*
X70027Y7079D01*
X69611Y8085D01*
X68948Y8948D01*
X68085Y9611D01*
X67079Y10028D01*
X66000Y10170D01*
X65113Y10053D01*
X59734Y15432D01*
Y19768D01*
X60196Y19959D01*
X62296Y17859D01*
X61973Y17079D01*
X61831Y16000D01*
X61973Y14921D01*
X62389Y13915D01*
X63052Y13052D01*
X63915Y12389D01*
X64921Y11972D01*
X66000Y11830D01*
X67079Y11972D01*
X68085Y12389D01*
X68948Y13052D01*
X69611Y13915D01*
X70027Y14921D01*
X70170Y16000D01*
X70027Y17079D01*
X69611Y18085D01*
X68948Y18948D01*
X68085Y19611D01*
X67079Y20027D01*
X66000Y20169D01*
X64921Y20027D01*
X64141Y19704D01*
X61505Y22340D01*
Y24806D01*
X61973Y24921D01*
X62389Y23915D01*
X63052Y23052D01*
X63915Y22389D01*
X64921Y21973D01*
X66000Y21831D01*
X67079Y21973D01*
X68085Y22389D01*
X68948Y23052D01*
X69611Y23915D01*
X70027Y24921D01*
X70170Y26000D01*
X70027Y27079D01*
X69611Y28085D01*
X68948Y28948D01*
X68085Y29611D01*
X67079Y30027D01*
X66000Y30169D01*
X64921Y30027D01*
X64141Y29704D01*
X47245Y46599D01*
Y61764D01*
X47610Y62309D01*
X47747Y63000D01*
X47610Y63691D01*
X47218Y64277D01*
X46632Y64669D01*
X46254Y64744D01*
X46303Y65244D01*
X49853D01*
Y50842D01*
X49952Y50343D01*
X50235Y49920D01*
X62296Y37859D01*
X61973Y37079D01*
X61831Y36000D01*
X61973Y34921D01*
X62389Y33915D01*
X63052Y33052D01*
X63915Y32389D01*
X64921Y31973D01*
X66000Y31830D01*
X67079Y31973D01*
X68085Y32389D01*
X68948Y33052D01*
X69611Y33915D01*
X70027Y34921D01*
X70170Y36000D01*
X70027Y37079D01*
X69611Y38085D01*
X68948Y38948D01*
X68085Y39611D01*
X67079Y40027D01*
X66000Y40170D01*
X64921Y40027D01*
X64141Y39704D01*
X52462Y51383D01*
Y57040D01*
X52924Y57231D01*
X62296Y47859D01*
X61973Y47079D01*
X61831Y46000D01*
X61973Y44921D01*
X62389Y43915D01*
X63052Y43052D01*
X63915Y42389D01*
X64921Y41973D01*
X66000Y41831D01*
X67079Y41973D01*
X68085Y42389D01*
X68948Y43052D01*
X69611Y43915D01*
X70027Y44921D01*
X70170Y46000D01*
X70027Y47079D01*
X69611Y48085D01*
X68948Y48948D01*
X68085Y49611D01*
X67079Y50027D01*
X66000Y50169D01*
X64921Y50027D01*
X64141Y49704D01*
X54234Y59611D01*
Y65268D01*
X54696Y65459D01*
X62296Y57859D01*
X61973Y57079D01*
X61831Y56000D01*
X61973Y54921D01*
X62389Y53915D01*
X63052Y53052D01*
X63915Y52389D01*
X64921Y51973D01*
X66000Y51831D01*
X67079Y51973D01*
X68085Y52389D01*
X68948Y53052D01*
X69611Y53915D01*
X70027Y54921D01*
X70170Y56000D01*
X70027Y57079D01*
X69611Y58085D01*
X68948Y58948D01*
X68085Y59611D01*
X67079Y60027D01*
X66000Y60170D01*
X64921Y60027D01*
X64141Y59704D01*
X56005Y67840D01*
Y71966D01*
X55906Y72465D01*
X55623Y72889D01*
X54802Y73710D01*
X54802Y73710D01*
X53938Y74573D01*
Y75510D01*
X54438Y75717D01*
X62296Y67859D01*
X61973Y67079D01*
X61831Y66000D01*
X61973Y64921D01*
X62389Y63915D01*
X63052Y63052D01*
X63915Y62389D01*
X64921Y61973D01*
X66000Y61831D01*
X67079Y61973D01*
X68085Y62389D01*
X68948Y63052D01*
X69611Y63915D01*
X70027Y64921D01*
X70170Y66000D01*
X70027Y67079D01*
X69611Y68085D01*
X68948Y68948D01*
X68085Y69611D01*
X67079Y70027D01*
X66000Y70170D01*
X64921Y70027D01*
X64141Y69704D01*
X55710Y78135D01*
Y84434D01*
X56210Y84844D01*
X56276Y84831D01*
X57136D01*
Y83559D01*
X57236Y83060D01*
X57519Y82637D01*
X62296Y77859D01*
X61973Y77079D01*
X61831Y76000D01*
X61973Y74921D01*
X62389Y73915D01*
X63052Y73052D01*
X63915Y72389D01*
X64921Y71973D01*
X66000Y71830D01*
X67079Y71973D01*
X68085Y72389D01*
X68948Y73052D01*
X69611Y73915D01*
X70027Y74921D01*
X70170Y76000D01*
X70027Y77079D01*
X69611Y78085D01*
X68948Y78948D01*
X68085Y79611D01*
X67079Y80027D01*
X66000Y80169D01*
X64921Y80027D01*
X64141Y79704D01*
X59746Y84099D01*
Y84831D01*
X60606D01*
X61144Y84938D01*
X61440Y85136D01*
X61967Y84961D01*
X61973Y84921D01*
X62389Y83915D01*
X63052Y83052D01*
X63915Y82389D01*
X64921Y81973D01*
X66000Y81831D01*
X67079Y81973D01*
X68085Y82389D01*
X68948Y83052D01*
X69611Y83915D01*
X70027Y84921D01*
X70170Y86000D01*
X70027Y87079D01*
X69611Y88085D01*
X68948Y88948D01*
X68085Y89611D01*
X67079Y90027D01*
X66000Y90170D01*
X65204Y90065D01*
X62243Y93027D01*
X61900Y93255D01*
X61996Y93745D01*
X62110Y93795D01*
X62463Y93819D01*
X63052Y93052D01*
X63915Y92389D01*
X64921Y91973D01*
X66000Y91830D01*
X67079Y91973D01*
X68085Y92389D01*
X68948Y93052D01*
X69611Y93915D01*
X70027Y94921D01*
X70170Y96000D01*
X70027Y97079D01*
X69611Y98085D01*
X68948Y98948D01*
X68085Y99611D01*
X67079Y100027D01*
X66159Y100149D01*
X66052Y100272D01*
X65948Y100496D01*
X65921Y100663D01*
X66113Y100951D01*
X66212Y101450D01*
Y101858D01*
X67079Y101973D01*
X68085Y102389D01*
X68948Y103052D01*
X69611Y103915D01*
X70027Y104921D01*
X70170Y106000D01*
X70027Y107079D01*
X69611Y108085D01*
X68948Y108948D01*
X68085Y109611D01*
X67079Y110027D01*
X66000Y110169D01*
X64921Y110027D01*
X63915Y109611D01*
X63052Y108948D01*
X62463Y108181D01*
X62110Y108205D01*
X61933Y108282D01*
X61904Y108427D01*
X61606Y108874D01*
X61904Y109321D01*
X62011Y109858D01*
X61904Y110396D01*
X61606Y110843D01*
X61904Y111289D01*
X62011Y111827D01*
X61904Y112364D01*
X61606Y112811D01*
X61904Y113258D01*
X61982Y113649D01*
X62483Y113793D01*
X63052Y113052D01*
X63915Y112389D01*
X64921Y111973D01*
X66000Y111830D01*
X67079Y111973D01*
X68085Y112389D01*
X68948Y113052D01*
X69611Y113915D01*
X70027Y114921D01*
X70170Y116000D01*
X70027Y117079D01*
X69611Y118085D01*
X68948Y118948D01*
X68085Y119611D01*
X67079Y120027D01*
X66000Y120169D01*
X64921Y120027D01*
X64537Y119869D01*
X64080Y120220D01*
Y121780D01*
X64580Y122114D01*
X64921Y121973D01*
X66000Y121830D01*
X67079Y121973D01*
X68085Y122389D01*
X68948Y123052D01*
X69611Y123915D01*
X70027Y124921D01*
X70170Y126000D01*
X70027Y127079D01*
X69611Y128085D01*
X68948Y128948D01*
X68085Y129611D01*
X67079Y130027D01*
X66000Y130169D01*
X64921Y130027D01*
X63915Y129611D01*
X63052Y128948D01*
X62389Y128085D01*
X62053Y127272D01*
X61553Y127372D01*
Y129708D01*
X64141Y132296D01*
X64921Y131973D01*
X66000Y131831D01*
X67079Y131973D01*
X68085Y132389D01*
X68948Y133052D01*
X69611Y133915D01*
X70027Y134921D01*
X70170Y136000D01*
X70027Y137079D01*
X69611Y138085D01*
X68948Y138948D01*
X68085Y139611D01*
X67079Y140027D01*
X66000Y140170D01*
X64921Y140027D01*
X63915Y139611D01*
X63052Y138948D01*
X62587Y138343D01*
X62087Y138512D01*
Y143488D01*
X62587Y143657D01*
X63052Y143052D01*
X63915Y142389D01*
X64921Y141973D01*
X66000Y141831D01*
X67079Y141973D01*
X68085Y142389D01*
X68948Y143052D01*
X69611Y143915D01*
X70027Y144921D01*
X70170Y146000D01*
X70027Y147079D01*
X69611Y148085D01*
X68948Y148948D01*
X68085Y149611D01*
X67079Y150027D01*
X66000Y150170D01*
X64921Y150027D01*
X63915Y149611D01*
X63052Y148948D01*
X62587Y148343D01*
X62087Y148512D01*
Y150242D01*
X64141Y152296D01*
X64921Y151973D01*
X66000Y151830D01*
X67079Y151973D01*
X68085Y152389D01*
X68948Y153052D01*
X69611Y153915D01*
X70027Y154921D01*
X70170Y156000D01*
X70027Y157079D01*
X69611Y158085D01*
X68948Y158948D01*
X68085Y159611D01*
X67079Y160027D01*
X66000Y160169D01*
X64921Y160027D01*
X63915Y159611D01*
X63052Y158948D01*
X62389Y158085D01*
X61973Y157079D01*
X61831Y156000D01*
X61973Y154921D01*
X62296Y154141D01*
X59860Y151705D01*
X59577Y151282D01*
X59478Y150782D01*
Y150259D01*
X58978Y149992D01*
X58810Y150104D01*
X58215Y150223D01*
X57606D01*
Y167019D01*
X58935Y168349D01*
X58935Y168349D01*
X59283Y168869D01*
X59406Y169484D01*
Y191523D01*
X59406Y191523D01*
X59283Y192137D01*
X58935Y192658D01*
X58913Y192681D01*
Y192833D01*
X58983Y192938D01*
X59132Y193687D01*
Y197132D01*
X58983Y197881D01*
X58559Y198516D01*
X57924Y198940D01*
X57175Y199089D01*
X55225D01*
X53834Y200481D01*
X54041Y200980D01*
X68000D01*
X68293Y200980D01*
D02*
G37*
G36*
X56194Y188900D02*
Y173458D01*
X55694Y173409D01*
X55683Y173464D01*
X55212Y174169D01*
X54507Y174640D01*
X53675Y174805D01*
X53055D01*
Y175496D01*
X53055Y175496D01*
X52964Y175953D01*
X52991Y176063D01*
X53259Y176453D01*
X53331D01*
X53868Y176560D01*
X54324Y176865D01*
X54629Y177321D01*
X54736Y177858D01*
Y180614D01*
X54629Y181152D01*
X54324Y181608D01*
X53868Y181912D01*
X53331Y182019D01*
X52150D01*
X51612Y181912D01*
X51156Y181608D01*
X51106Y181532D01*
X50606Y181684D01*
Y184970D01*
X50682Y185021D01*
X51156Y185211D01*
X51612Y184907D01*
X52150Y184800D01*
X53331D01*
X53868Y184907D01*
X54324Y185211D01*
X54629Y185667D01*
X54736Y186205D01*
Y188095D01*
X55732Y189092D01*
X56194Y188900D01*
D02*
G37*
G36*
X41506Y182904D02*
X41506Y182904D01*
X42027Y182556D01*
X42642Y182434D01*
X42642Y182434D01*
X44191D01*
X44240Y181934D01*
X44132Y181912D01*
X43676Y181608D01*
X43371Y181152D01*
X43264Y180614D01*
Y177858D01*
X43371Y177321D01*
X43676Y176865D01*
X43753Y176813D01*
Y174475D01*
X43576Y174440D01*
X42941Y174016D01*
X42517Y173381D01*
X42368Y172632D01*
Y172515D01*
X40342D01*
X39937Y172744D01*
Y178256D01*
X38376D01*
X38239Y178585D01*
X38235Y178756D01*
X39089Y179411D01*
X39783Y180316D01*
X40219Y181369D01*
X40368Y182500D01*
X40241Y183462D01*
X40715Y183695D01*
X41506Y182904D01*
D02*
G37*
G36*
X47614Y177186D02*
X47865Y176810D01*
X49844Y174831D01*
Y174123D01*
X49403Y173464D01*
X49238Y172632D01*
Y171409D01*
X52543D01*
Y170409D01*
X49238D01*
Y169187D01*
X49403Y168355D01*
X49874Y167650D01*
X49978Y167581D01*
X49646Y167085D01*
X49592Y166811D01*
X51516D01*
Y165811D01*
X49592D01*
X49646Y165537D01*
X50085Y164880D01*
X50741Y164442D01*
X51073Y164376D01*
X51135Y164314D01*
Y162765D01*
X46865Y158495D01*
X46517Y157974D01*
X46394Y157360D01*
X46394Y157360D01*
Y150440D01*
X45785D01*
X45107Y150305D01*
X44532Y149920D01*
X44148Y149346D01*
X44146Y149338D01*
X43771Y149281D01*
X43629Y149297D01*
X43314Y149767D01*
X42810Y150104D01*
X42215Y150223D01*
X37785D01*
X37190Y150104D01*
X36686Y149767D01*
X36348Y149263D01*
X36255Y148793D01*
X35745D01*
X35652Y149263D01*
X35314Y149767D01*
X34810Y150104D01*
X34215Y150223D01*
X29785D01*
X29190Y150104D01*
X28686Y149767D01*
X28348Y149263D01*
X28255Y148793D01*
X27745D01*
X27652Y149263D01*
X27314Y149767D01*
X26810Y150104D01*
X26215Y150223D01*
X21785D01*
X21190Y150104D01*
X20686Y149767D01*
X20348Y149263D01*
X20255Y148793D01*
X19745D01*
X19652Y149263D01*
X19314Y149767D01*
X18810Y150104D01*
X18215Y150223D01*
X14994D01*
X14803Y150685D01*
X33422Y169304D01*
X42368D01*
Y169187D01*
X42517Y168438D01*
X42941Y167803D01*
X43576Y167379D01*
X44325Y167230D01*
X46589D01*
X47337Y167379D01*
X47972Y167803D01*
X48397Y168438D01*
X48546Y169187D01*
Y172632D01*
X48397Y173381D01*
X47972Y174016D01*
X47337Y174440D01*
X46964Y174514D01*
Y177044D01*
X47058Y177186D01*
X47119Y177205D01*
X47532Y177209D01*
X47614Y177186D01*
D02*
G37*
G36*
X54394Y160841D02*
Y150223D01*
X53785D01*
X53190Y150104D01*
X52686Y149767D01*
X52371Y149297D01*
X52229Y149281D01*
X51854Y149338D01*
X51852Y149346D01*
X51468Y149920D01*
X50893Y150305D01*
X50215Y150440D01*
X49606D01*
Y156695D01*
X53875Y160965D01*
X53875Y160965D01*
X53894Y160993D01*
X54394Y160841D01*
D02*
G37*
G36*
X28348Y137737D02*
X28423Y137277D01*
X28031Y136691D01*
X27894Y136000D01*
X28031Y135309D01*
X28400Y134756D01*
X28362Y134582D01*
X28221Y134256D01*
X26193D01*
Y128744D01*
X27705D01*
Y127409D01*
X27205Y126999D01*
X27142Y127011D01*
X26604Y126904D01*
X26158Y126606D01*
X25711Y126904D01*
X25173Y127011D01*
X24636Y126904D01*
X24189Y126606D01*
X23742Y126904D01*
X23205Y127011D01*
X22667Y126904D01*
X22220Y126606D01*
X21774Y126904D01*
X21236Y127011D01*
X21171Y126998D01*
X20671Y127409D01*
Y128095D01*
X24923Y132347D01*
X25205Y132770D01*
X25305Y133270D01*
Y136777D01*
X26215D01*
X26810Y136896D01*
X27314Y137233D01*
X27652Y137737D01*
X27745Y138207D01*
X28255D01*
X28348Y137737D01*
D02*
G37*
G36*
X20348Y137737D02*
X20686Y137233D01*
X21190Y136896D01*
X21785Y136777D01*
X22695D01*
Y133810D01*
X18444Y129558D01*
X18161Y129135D01*
X18061Y128636D01*
Y126947D01*
X17586Y126738D01*
X17305Y126964D01*
Y136777D01*
X18215D01*
X18810Y136896D01*
X19314Y137233D01*
X19652Y137737D01*
X19745Y138207D01*
X20255D01*
X20348Y137737D01*
D02*
G37*
G36*
X53760Y121815D02*
X54244Y121469D01*
Y120193D01*
X54914D01*
X54931Y120109D01*
X55168Y119754D01*
X55186Y119252D01*
X55095Y119073D01*
X53483Y117461D01*
X53200Y117038D01*
X53101Y116538D01*
Y114989D01*
X53200Y114490D01*
X53483Y114067D01*
X54639Y112910D01*
X54710Y112863D01*
X54978Y112364D01*
X54871Y111827D01*
X54978Y111289D01*
X55276Y110843D01*
X54978Y110396D01*
X54871Y109858D01*
X54903Y109694D01*
X54506Y109194D01*
X53927D01*
X53620Y109501D01*
X53197Y109784D01*
X52698Y109883D01*
X37862D01*
X37606Y110176D01*
X37684Y110753D01*
X37881Y110884D01*
X38319Y111540D01*
X38374Y111814D01*
X36450D01*
Y112814D01*
X38374D01*
X38319Y113089D01*
X37881Y113745D01*
X37855Y113762D01*
Y114545D01*
X37978Y114667D01*
X38282Y115123D01*
X38389Y115661D01*
Y119473D01*
X38889Y119883D01*
X38953Y119871D01*
X39490Y119978D01*
X39937Y120276D01*
X40384Y119978D01*
X40921Y119871D01*
X41459Y119978D01*
X41906Y120276D01*
X42352Y119978D01*
X42890Y119871D01*
X43427Y119978D01*
X43874Y120276D01*
X44321Y119978D01*
X44858Y119871D01*
X45396Y119978D01*
X45842Y120276D01*
X46289Y119978D01*
X46827Y119871D01*
X47364Y119978D01*
X47811Y120276D01*
X48258Y119978D01*
X48795Y119871D01*
X48959Y119903D01*
X49459Y119520D01*
X49558Y119020D01*
X49663Y118864D01*
X49611Y118600D01*
X49748Y117909D01*
X50140Y117323D01*
X50726Y116931D01*
X51417Y116794D01*
X52108Y116931D01*
X52694Y117323D01*
X53086Y117909D01*
X53223Y118600D01*
X53086Y119291D01*
X52694Y119877D01*
X52108Y120269D01*
X52068Y120277D01*
Y120771D01*
X52169Y121276D01*
Y121540D01*
X52669Y121848D01*
X52760Y121830D01*
Y123753D01*
X53760D01*
Y121815D01*
D02*
G37*
G36*
X32907Y96903D02*
X32735Y96368D01*
X32207Y96263D01*
X31550Y95825D01*
X31112Y95169D01*
X31057Y94894D01*
X32981D01*
Y93894D01*
X31057D01*
X31101Y93673D01*
X31068Y93526D01*
X30880Y93173D01*
X29496D01*
X28959Y93067D01*
X28503Y92762D01*
X21133Y85392D01*
X20671Y85583D01*
Y87745D01*
X20571Y88244D01*
X20289Y88667D01*
X17898Y91058D01*
X17474Y91341D01*
X17442Y91347D01*
X17333Y91414D01*
X17031Y91650D01*
X17129Y92142D01*
X17400Y92139D01*
Y94100D01*
X17900D01*
Y94600D01*
X19824D01*
X19769Y94874D01*
X19331Y95531D01*
X18674Y95969D01*
X17900Y96123D01*
X17603Y96064D01*
X17549Y96066D01*
X17425Y96312D01*
X17426Y96335D01*
X17700Y96833D01*
X17934Y96880D01*
X18358Y97162D01*
X19414Y98219D01*
X20057Y98347D01*
X20643Y98738D01*
X21035Y99325D01*
X21172Y100016D01*
X21035Y100707D01*
X20643Y101293D01*
X20057Y101685D01*
X19366Y101822D01*
X18675Y101685D01*
X18089Y101293D01*
X17697Y100707D01*
X17645Y100443D01*
X17560Y100413D01*
X17022Y100553D01*
X16724Y101000D01*
X17022Y101447D01*
X17129Y101984D01*
X17122Y102023D01*
X17553Y102416D01*
X17900Y102347D01*
X25606D01*
X25606Y102347D01*
X26221Y102469D01*
X26742Y102817D01*
X26867Y102943D01*
X32907Y96903D01*
D02*
G37*
G36*
X31621Y112718D02*
X32882Y111458D01*
Y111377D01*
X32981Y110878D01*
X33264Y110454D01*
X36062Y107656D01*
X36485Y107373D01*
X36984Y107274D01*
X41873D01*
X42212Y106815D01*
X44174D01*
Y106315D01*
X44674D01*
Y104391D01*
X44949Y104446D01*
X45605Y104884D01*
X45622Y104910D01*
X48785D01*
X49233Y104462D01*
X49689Y104157D01*
X50226Y104051D01*
X50797D01*
X51064Y103551D01*
X50958Y103392D01*
X50936Y103280D01*
X46831Y99175D01*
X46682Y99146D01*
X46161Y98798D01*
X46161Y98798D01*
X42333Y94970D01*
X40088Y97214D01*
X39567Y97562D01*
X38953Y97684D01*
X38953Y97684D01*
X36667D01*
X35856Y98496D01*
X35937Y98765D01*
X36068Y98990D01*
X36774Y99131D01*
X37431Y99569D01*
X37869Y100226D01*
X37924Y100500D01*
X36000D01*
Y101000D01*
X35500D01*
Y102924D01*
X35226Y102869D01*
X34569Y102431D01*
X34131Y101774D01*
X33990Y101068D01*
X33765Y100937D01*
X33496Y100856D01*
X29138Y105214D01*
X30443Y106518D01*
X30790Y107039D01*
X30913Y107653D01*
X30790Y108268D01*
X30712Y108385D01*
Y112468D01*
X31212Y112799D01*
X31621Y112718D01*
D02*
G37*
G36*
X45422Y87339D02*
Y86547D01*
X44922Y86215D01*
X44465Y86306D01*
X43773Y86169D01*
X43187Y85777D01*
X42796Y85191D01*
X42658Y84500D01*
X42796Y83809D01*
X43187Y83223D01*
X43554Y82978D01*
Y82494D01*
X43054Y82097D01*
X42890Y82129D01*
X42352Y82022D01*
X41906Y81724D01*
X41459Y82022D01*
X40921Y82129D01*
X40384Y82022D01*
X39937Y81724D01*
X39490Y82022D01*
X38953Y82129D01*
X38415Y82022D01*
X37969Y81724D01*
X37522Y82022D01*
X36984Y82129D01*
X36447Y82022D01*
X36000Y81724D01*
X35553Y82022D01*
X35401Y82053D01*
X35053Y82476D01*
X35029Y82598D01*
X34930Y83095D01*
X35101Y83516D01*
X35144Y83595D01*
X38552D01*
X38569Y83569D01*
X39226Y83131D01*
X39500Y83076D01*
Y85000D01*
Y86924D01*
X39226Y86869D01*
X38569Y86431D01*
X38552Y86405D01*
X29895D01*
X29703Y86867D01*
X31231Y88395D01*
X40014D01*
X40409Y88131D01*
X41100Y87994D01*
X41791Y88131D01*
X42377Y88523D01*
X42769Y89109D01*
X42798Y89256D01*
X43341Y89420D01*
X45422Y87339D01*
D02*
G37*
G36*
X54600Y101791D02*
X54938Y101646D01*
X54978Y101447D01*
X55276Y101000D01*
X54978Y100553D01*
X54871Y100016D01*
X54978Y99478D01*
X55276Y99032D01*
X54978Y98585D01*
X54871Y98047D01*
X54978Y97510D01*
X55276Y97063D01*
X54978Y96616D01*
X54871Y96079D01*
X54978Y95541D01*
X55276Y95095D01*
X54978Y94648D01*
X54871Y94110D01*
X54978Y93573D01*
X55276Y93126D01*
X54978Y92679D01*
X54871Y92142D01*
X54911Y91940D01*
X54768Y91505D01*
X54547Y91400D01*
X54247Y91341D01*
X53824Y91058D01*
X51711Y88946D01*
X51429Y88522D01*
X51329Y88023D01*
Y82527D01*
X50829Y82116D01*
X50764Y82129D01*
X50226Y82022D01*
X49779Y81724D01*
X49333Y82022D01*
X48795Y82129D01*
X48732Y82117D01*
X48232Y82527D01*
Y87473D01*
X48310Y87590D01*
X48432Y88205D01*
X48310Y88819D01*
X47962Y89340D01*
X44603Y92699D01*
X48054Y96149D01*
X48203Y96179D01*
X48724Y96527D01*
X53207Y101010D01*
X53318Y101032D01*
X53904Y101424D01*
X53994Y101558D01*
X54393Y101824D01*
X54600Y101791D01*
D02*
G37*
G36*
X41520Y60804D02*
X41535Y60789D01*
X41477Y60500D01*
X41615Y59809D01*
X41979Y59264D01*
Y47091D01*
X41517Y46900D01*
X39864Y48553D01*
Y61050D01*
X40364Y61327D01*
X40520Y61296D01*
Y63220D01*
X41520D01*
Y60804D01*
D02*
G37*
G36*
X44195Y37560D02*
Y36709D01*
X42843D01*
Y31591D01*
X48158D01*
Y35916D01*
X48619Y36107D01*
X57125Y27602D01*
Y22256D01*
X52797D01*
X52739Y22546D01*
X52434Y23001D01*
X48158Y27278D01*
Y30409D01*
X42843D01*
Y26746D01*
X42381Y26555D01*
X41658Y27278D01*
Y30409D01*
X36342D01*
Y25291D01*
X39671D01*
X40595Y24367D01*
Y22256D01*
X38063D01*
Y16744D01*
X39624D01*
X39761Y16415D01*
X39765Y16244D01*
X38911Y15589D01*
X38217Y14684D01*
X37781Y13631D01*
X37632Y12500D01*
X37781Y11370D01*
X38217Y10316D01*
X38911Y9411D01*
X39488Y8969D01*
X39319Y8468D01*
X37850D01*
Y7106D01*
X34150D01*
Y8468D01*
X32681D01*
X32512Y8969D01*
X33089Y9411D01*
X33783Y10316D01*
X34219Y11370D01*
X34368Y12500D01*
X34219Y13631D01*
X33783Y14684D01*
X33089Y15589D01*
X32235Y16244D01*
X32239Y16415D01*
X32376Y16744D01*
X33937D01*
Y22256D01*
X31405D01*
Y24867D01*
X31829Y25291D01*
X35157D01*
Y30409D01*
X29842D01*
Y27485D01*
X29658Y27345D01*
X29158Y27593D01*
Y30409D01*
X23843D01*
Y26805D01*
X23816Y26669D01*
Y26121D01*
X19950Y22256D01*
X14875D01*
Y26675D01*
X23381Y35180D01*
X23843Y34988D01*
Y31591D01*
X29158D01*
Y34657D01*
X29342Y34797D01*
X29842Y34549D01*
Y31591D01*
X35157D01*
Y36709D01*
X34549D01*
Y39653D01*
X35011Y39845D01*
X37646Y37209D01*
X37577Y36709D01*
X36342D01*
Y31591D01*
X41658D01*
Y36709D01*
X40305D01*
Y37700D01*
X40205Y38199D01*
X39922Y38622D01*
X36320Y42225D01*
Y44781D01*
X36782Y44973D01*
X44195Y37560D01*
D02*
G37*
G36*
X28595Y22256D02*
X26063D01*
Y16744D01*
X27624D01*
X27761Y16415D01*
X27765Y16244D01*
X26911Y15589D01*
X26217Y14684D01*
X25781Y13631D01*
X25632Y12500D01*
X25781Y11370D01*
X26217Y10316D01*
X26911Y9411D01*
X27488Y8969D01*
X27319Y8468D01*
X25850D01*
Y7106D01*
X22150D01*
Y8468D01*
X20681D01*
X20512Y8969D01*
X21089Y9411D01*
X21783Y10316D01*
X22219Y11370D01*
X22368Y12500D01*
X22219Y13631D01*
X21783Y14684D01*
X21089Y15589D01*
X20235Y16244D01*
X20239Y16415D01*
X20376Y16744D01*
X21937D01*
Y20269D01*
X26214Y24546D01*
X26518Y25002D01*
X26576Y25291D01*
X28595D01*
Y22256D01*
D02*
G37*
%LPC*%
G36*
X20424Y196424D02*
Y195000D01*
X21847D01*
X21793Y195274D01*
X21354Y195931D01*
X20698Y196369D01*
X20424Y196424D01*
D02*
G37*
G36*
X19424D02*
X19150Y196369D01*
X18493Y195931D01*
X18055Y195274D01*
X18000Y195000D01*
X19424D01*
Y196424D01*
D02*
G37*
G36*
X21847Y194000D02*
X20424D01*
Y192576D01*
X20698Y192631D01*
X21354Y193069D01*
X21793Y193726D01*
X21847Y194000D01*
D02*
G37*
G36*
X19424D02*
X18000D01*
X18055Y193726D01*
X18493Y193069D01*
X19150Y192631D01*
X19424Y192576D01*
Y194000D01*
D02*
G37*
G36*
X40150Y192469D02*
X36500D01*
Y190000D01*
X40150D01*
Y192469D01*
D02*
G37*
G36*
X35500D02*
X31850D01*
Y190000D01*
X35500D01*
Y192469D01*
D02*
G37*
G36*
X66000Y190170D02*
X64921Y190027D01*
X63915Y189611D01*
X63052Y188948D01*
X62389Y188085D01*
X61973Y187079D01*
X61831Y186000D01*
X61973Y184921D01*
X62389Y183915D01*
X63052Y183052D01*
X63915Y182389D01*
X64921Y181973D01*
X66000Y181831D01*
X67079Y181973D01*
X68085Y182389D01*
X68948Y183052D01*
X69611Y183915D01*
X70027Y184921D01*
X70170Y186000D01*
X70027Y187079D01*
X69611Y188085D01*
X68948Y188948D01*
X68085Y189611D01*
X67079Y190027D01*
X66000Y190170D01*
D02*
G37*
G36*
X6000D02*
X4921Y190027D01*
X3915Y189611D01*
X3052Y188948D01*
X2389Y188085D01*
X1973Y187079D01*
X1830Y186000D01*
X1973Y184921D01*
X2389Y183915D01*
X3052Y183052D01*
X3915Y182389D01*
X4921Y181973D01*
X6000Y181831D01*
X7079Y181973D01*
X8085Y182389D01*
X8948Y183052D01*
X9611Y183915D01*
X10028Y184921D01*
X10170Y186000D01*
X10028Y187079D01*
X9611Y188085D01*
X8948Y188948D01*
X8085Y189611D01*
X7079Y190027D01*
X6000Y190170D01*
D02*
G37*
G36*
X18742Y179135D02*
Y177712D01*
X20165D01*
X20111Y177986D01*
X19672Y178642D01*
X19016Y179081D01*
X18742Y179135D01*
D02*
G37*
G36*
X17742D02*
X17467Y179081D01*
X16811Y178642D01*
X16373Y177986D01*
X16318Y177712D01*
X17742D01*
Y179135D01*
D02*
G37*
G36*
X20165Y176712D02*
X18742D01*
Y175288D01*
X19016Y175343D01*
X19672Y175781D01*
X20111Y176438D01*
X20165Y176712D01*
D02*
G37*
G36*
X17742D02*
X16318D01*
X16373Y176438D01*
X16811Y175781D01*
X17467Y175343D01*
X17742Y175288D01*
Y176712D01*
D02*
G37*
G36*
X26100Y174222D02*
Y172799D01*
X27524D01*
X27469Y173073D01*
X27031Y173729D01*
X26374Y174168D01*
X26100Y174222D01*
D02*
G37*
G36*
X25100D02*
X24826Y174168D01*
X24169Y173729D01*
X23731Y173073D01*
X23676Y172799D01*
X25100D01*
Y174222D01*
D02*
G37*
G36*
X66000Y180169D02*
X64921Y180027D01*
X63915Y179611D01*
X63052Y178948D01*
X62389Y178085D01*
X61973Y177079D01*
X61831Y176000D01*
X61973Y174921D01*
X62389Y173915D01*
X63052Y173052D01*
X63915Y172389D01*
X64921Y171973D01*
X66000Y171830D01*
X67079Y171973D01*
X68085Y172389D01*
X68948Y173052D01*
X69611Y173915D01*
X70027Y174921D01*
X70170Y176000D01*
X70027Y177079D01*
X69611Y178085D01*
X68948Y178948D01*
X68085Y179611D01*
X67079Y180027D01*
X66000Y180169D01*
D02*
G37*
G36*
X6000D02*
X4921Y180027D01*
X3915Y179611D01*
X3052Y178948D01*
X2389Y178085D01*
X1973Y177079D01*
X1830Y176000D01*
X1973Y174921D01*
X2389Y173915D01*
X3052Y173052D01*
X3915Y172389D01*
X4921Y171973D01*
X6000Y171830D01*
X7079Y171973D01*
X8085Y172389D01*
X8948Y173052D01*
X9611Y173915D01*
X10028Y174921D01*
X10170Y176000D01*
X10028Y177079D01*
X9611Y178085D01*
X8948Y178948D01*
X8085Y179611D01*
X7079Y180027D01*
X6000Y180169D01*
D02*
G37*
G36*
X27524Y171799D02*
X26100D01*
Y170375D01*
X26374Y170429D01*
X27031Y170868D01*
X27469Y171524D01*
X27524Y171799D01*
D02*
G37*
G36*
X25100D02*
X23676D01*
X23731Y171524D01*
X24169Y170868D01*
X24826Y170429D01*
X25100Y170375D01*
Y171799D01*
D02*
G37*
G36*
X66000Y170169D02*
X64921Y170027D01*
X63915Y169611D01*
X63052Y168948D01*
X62389Y168085D01*
X61973Y167079D01*
X61831Y166000D01*
X61973Y164921D01*
X62389Y163915D01*
X63052Y163052D01*
X63915Y162389D01*
X64921Y161973D01*
X66000Y161830D01*
X67079Y161973D01*
X68085Y162389D01*
X68948Y163052D01*
X69611Y163915D01*
X70027Y164921D01*
X70170Y166000D01*
X70027Y167079D01*
X69611Y168085D01*
X68948Y168948D01*
X68085Y169611D01*
X67079Y170027D01*
X66000Y170169D01*
D02*
G37*
G36*
X6000D02*
X4921Y170027D01*
X3915Y169611D01*
X3052Y168948D01*
X2389Y168085D01*
X1973Y167079D01*
X1830Y166000D01*
X1973Y164921D01*
X2389Y163915D01*
X3052Y163052D01*
X3915Y162389D01*
X4921Y161973D01*
X6000Y161830D01*
X7079Y161973D01*
X8085Y162389D01*
X8948Y163052D01*
X9611Y163915D01*
X10028Y164921D01*
X10170Y166000D01*
X10028Y167079D01*
X9611Y168085D01*
X8948Y168948D01*
X8085Y169611D01*
X7079Y170027D01*
X6000Y170169D01*
D02*
G37*
G36*
Y160169D02*
X4921Y160027D01*
X3915Y159611D01*
X3052Y158948D01*
X2389Y158085D01*
X1973Y157079D01*
X1830Y156000D01*
X1973Y154921D01*
X2389Y153915D01*
X3052Y153052D01*
X3915Y152389D01*
X4921Y151973D01*
X6000Y151830D01*
X7079Y151973D01*
X8085Y152389D01*
X8948Y153052D01*
X9611Y153915D01*
X10028Y154921D01*
X10170Y156000D01*
X10028Y157079D01*
X9611Y158085D01*
X8948Y158948D01*
X8085Y159611D01*
X7079Y160027D01*
X6000Y160169D01*
D02*
G37*
G36*
X5500Y110318D02*
X4865Y110235D01*
X3808Y109797D01*
X2900Y109100D01*
X2203Y108192D01*
X1765Y107135D01*
X1682Y106500D01*
X5500D01*
Y110318D01*
D02*
G37*
G36*
Y105500D02*
X1682D01*
X1765Y104865D01*
X2203Y103808D01*
X2900Y102900D01*
X3808Y102203D01*
X4865Y101765D01*
X5500Y101682D01*
Y105500D01*
D02*
G37*
G36*
X18524Y67100D02*
X17100D01*
Y65676D01*
X17374Y65731D01*
X18031Y66169D01*
X18469Y66826D01*
X18524Y67100D01*
D02*
G37*
G36*
X16100D02*
X14676D01*
X14731Y66826D01*
X15169Y66169D01*
X15826Y65731D01*
X16100Y65676D01*
Y67100D01*
D02*
G37*
G36*
X21736Y49003D02*
Y47579D01*
X23160D01*
X23105Y47853D01*
X22667Y48510D01*
X22010Y48948D01*
X21736Y49003D01*
D02*
G37*
G36*
X20736D02*
X20462Y48948D01*
X19806Y48510D01*
X19367Y47853D01*
X19313Y47579D01*
X20736D01*
Y49003D01*
D02*
G37*
G36*
X23160Y46579D02*
X21736D01*
Y45156D01*
X22010Y45210D01*
X22667Y45649D01*
X23105Y46305D01*
X23160Y46579D01*
D02*
G37*
G36*
X20736D02*
X19313D01*
X19367Y46305D01*
X19806Y45649D01*
X20462Y45210D01*
X20736Y45156D01*
Y46579D01*
D02*
G37*
G36*
X58150Y5000D02*
X54500D01*
Y2531D01*
X58150D01*
Y5000D01*
D02*
G37*
G36*
X17500D02*
X13850D01*
Y2531D01*
X17500D01*
Y5000D01*
D02*
G37*
G36*
X41700Y166324D02*
Y164900D01*
X43124D01*
X43069Y165174D01*
X42631Y165831D01*
X41974Y166269D01*
X41700Y166324D01*
D02*
G37*
G36*
X40700D02*
X40426Y166269D01*
X39769Y165831D01*
X39331Y165174D01*
X39276Y164900D01*
X40700D01*
Y166324D01*
D02*
G37*
G36*
X35400Y166224D02*
Y164800D01*
X36824D01*
X36769Y165074D01*
X36331Y165731D01*
X35674Y166169D01*
X35400Y166224D01*
D02*
G37*
G36*
X34400D02*
X34126Y166169D01*
X33469Y165731D01*
X33031Y165074D01*
X32976Y164800D01*
X34400D01*
Y166224D01*
D02*
G37*
G36*
X43124Y163900D02*
X41700D01*
Y162476D01*
X41974Y162531D01*
X42631Y162969D01*
X43069Y163626D01*
X43124Y163900D01*
D02*
G37*
G36*
X40700D02*
X39276D01*
X39331Y163626D01*
X39769Y162969D01*
X40426Y162531D01*
X40700Y162476D01*
Y163900D01*
D02*
G37*
G36*
X36824Y163800D02*
X35400D01*
Y162376D01*
X35674Y162431D01*
X36331Y162869D01*
X36769Y163526D01*
X36824Y163800D01*
D02*
G37*
G36*
X34400D02*
X32976D01*
X33031Y163526D01*
X33469Y162869D01*
X34126Y162431D01*
X34400Y162376D01*
Y163800D01*
D02*
G37*
G36*
X41607Y115635D02*
Y114212D01*
X43031D01*
X42976Y114486D01*
X42537Y115142D01*
X41881Y115581D01*
X41607Y115635D01*
D02*
G37*
G36*
X40607D02*
X40333Y115581D01*
X39676Y115142D01*
X39238Y114486D01*
X39183Y114212D01*
X40607D01*
Y115635D01*
D02*
G37*
G36*
X43031Y113212D02*
X41607D01*
Y111788D01*
X41881Y111843D01*
X42537Y112281D01*
X42976Y112937D01*
X43031Y113212D01*
D02*
G37*
G36*
X40607D02*
X39183D01*
X39238Y112937D01*
X39676Y112281D01*
X40333Y111843D01*
X40607Y111788D01*
Y113212D01*
D02*
G37*
G36*
X26165Y98869D02*
Y97445D01*
X27589D01*
X27534Y97720D01*
X27096Y98376D01*
X26440Y98815D01*
X26165Y98869D01*
D02*
G37*
G36*
X25165D02*
X24891Y98815D01*
X24235Y98376D01*
X23796Y97720D01*
X23742Y97445D01*
X25165D01*
Y98869D01*
D02*
G37*
G36*
X27589Y96446D02*
X26165D01*
Y95022D01*
X26440Y95076D01*
X27096Y95515D01*
X27534Y96171D01*
X27589Y96446D01*
D02*
G37*
G36*
X25165D02*
X23742D01*
X23796Y96171D01*
X24235Y95515D01*
X24891Y95076D01*
X25165Y95022D01*
Y96446D01*
D02*
G37*
G36*
X19824Y93600D02*
X18400D01*
Y92176D01*
X18674Y92231D01*
X19331Y92669D01*
X19769Y93326D01*
X19824Y93600D01*
D02*
G37*
G36*
X43674Y105815D02*
X42251D01*
X42305Y105541D01*
X42744Y104884D01*
X43400Y104446D01*
X43674Y104391D01*
Y105815D01*
D02*
G37*
G36*
X36500Y102924D02*
Y101500D01*
X37924D01*
X37869Y101774D01*
X37431Y102431D01*
X36774Y102869D01*
X36500Y102924D01*
D02*
G37*
G36*
X42794Y102434D02*
Y101010D01*
X44218D01*
X44164Y101284D01*
X43725Y101941D01*
X43069Y102379D01*
X42794Y102434D01*
D02*
G37*
G36*
X41794D02*
X41520Y102379D01*
X40864Y101941D01*
X40425Y101284D01*
X40371Y101010D01*
X41794D01*
Y102434D01*
D02*
G37*
G36*
X44218Y100010D02*
X42794D01*
Y98586D01*
X43069Y98641D01*
X43725Y99080D01*
X44164Y99736D01*
X44218Y100010D01*
D02*
G37*
G36*
X41794D02*
X40371D01*
X40425Y99736D01*
X40864Y99080D01*
X41520Y98641D01*
X41794Y98586D01*
Y100010D01*
D02*
G37*
G36*
X40500Y86924D02*
Y85500D01*
X41924D01*
X41869Y85774D01*
X41431Y86431D01*
X40774Y86869D01*
X40500Y86924D01*
D02*
G37*
G36*
X41924Y84500D02*
X40500D01*
Y83076D01*
X40774Y83131D01*
X41431Y83569D01*
X41869Y84226D01*
X41924Y84500D01*
D02*
G37*
G36*
X50700Y96318D02*
Y94894D01*
X52124D01*
X52069Y95169D01*
X51631Y95825D01*
X50974Y96263D01*
X50700Y96318D01*
D02*
G37*
G36*
X49700D02*
X49426Y96263D01*
X48769Y95825D01*
X48331Y95169D01*
X48276Y94894D01*
X49700D01*
Y96318D01*
D02*
G37*
G36*
X52124Y93894D02*
X50700D01*
Y92471D01*
X50974Y92525D01*
X51631Y92964D01*
X52069Y93620D01*
X52124Y93894D01*
D02*
G37*
G36*
X49700D02*
X48276D01*
X48331Y93620D01*
X48769Y92964D01*
X49426Y92525D01*
X49700Y92471D01*
Y93894D01*
D02*
G37*
G36*
X53319Y29526D02*
Y28102D01*
X54743D01*
X54688Y28376D01*
X54250Y29032D01*
X53593Y29471D01*
X53319Y29526D01*
D02*
G37*
G36*
X52319D02*
X52045Y29471D01*
X51388Y29032D01*
X50950Y28376D01*
X50895Y28102D01*
X52319D01*
Y29526D01*
D02*
G37*
G36*
X19681Y28045D02*
Y26621D01*
X21105D01*
X21050Y26895D01*
X20612Y27552D01*
X19955Y27990D01*
X19681Y28045D01*
D02*
G37*
G36*
X18681D02*
X18407Y27990D01*
X17751Y27552D01*
X17312Y26895D01*
X17257Y26621D01*
X18681D01*
Y28045D01*
D02*
G37*
G36*
X54743Y27102D02*
X53319D01*
Y25678D01*
X53593Y25733D01*
X54250Y26171D01*
X54688Y26828D01*
X54743Y27102D01*
D02*
G37*
G36*
X52319D02*
X50895D01*
X50950Y26828D01*
X51388Y26171D01*
X52045Y25733D01*
X52319Y25678D01*
Y27102D01*
D02*
G37*
G36*
X21105Y25621D02*
X19681D01*
Y24198D01*
X19955Y24252D01*
X20612Y24691D01*
X21050Y25347D01*
X21105Y25621D01*
D02*
G37*
G36*
X18681D02*
X17257D01*
X17312Y25347D01*
X17751Y24691D01*
X18407Y24252D01*
X18681Y24198D01*
Y25621D01*
D02*
G37*
%LPD*%
D14*
X25606Y103953D02*
X26867Y105214D01*
X26867D01*
X36002Y96079D02*
X38953D01*
X26867Y105214D02*
X29307Y107653D01*
X26867Y105214D02*
X36002Y96079D01*
X25606Y103953D02*
Y105094D01*
X38953Y96079D02*
X38953D01*
X14603Y122135D02*
X14685Y122217D01*
X51387Y166182D02*
X51591Y166386D01*
Y169957D01*
X51516Y166204D02*
Y166311D01*
X52740Y162100D02*
Y164980D01*
X51591Y169957D02*
X52543Y170909D01*
X14603Y119257D02*
Y122135D01*
X51516Y166204D02*
X52740Y164980D01*
X51450Y172003D02*
X52543Y170909D01*
X13314Y123588D02*
X14685Y122217D01*
X13314Y123588D02*
Y133586D01*
X58035Y135620D02*
Y141465D01*
Y135620D02*
X58110Y135545D01*
X56000Y143500D02*
X58035Y141465D01*
X44319Y132193D02*
X46693Y134567D01*
Y142193D01*
X48000Y143500D01*
X21000Y109700D02*
X25606Y105094D01*
X21000Y109700D02*
Y109700D01*
X11100Y135800D02*
X13314Y133586D01*
X11100Y135800D02*
Y149253D01*
X32757Y170909D01*
X45457D01*
X48000Y143500D02*
Y157360D01*
X47296Y97662D02*
X47588D01*
X52627Y102701D01*
X42333Y92699D02*
X47296Y97662D01*
X56000Y143500D02*
Y167684D01*
X48000Y157360D02*
X52740Y162100D01*
X42333Y92699D02*
X46827Y88205D01*
X38953Y96079D02*
X42333Y92699D01*
X17900Y103953D02*
X25606D01*
X57307Y192016D02*
Y194146D01*
X56043Y195409D02*
X57307Y194146D01*
Y192016D02*
X57800Y191523D01*
Y169484D02*
Y191523D01*
X56000Y167684D02*
X57800Y169484D01*
X48000Y5500D02*
X54000D01*
X42000D02*
X48000D01*
X30000D02*
X42000D01*
X18000D02*
X30000D01*
X49000Y182764D02*
Y187583D01*
Y177946D02*
Y182764D01*
X47725Y184039D02*
X49000Y182764D01*
X42642Y184039D02*
X47725D01*
X37181Y189500D02*
X42642Y184039D01*
X36000Y189500D02*
X37181D01*
X56043Y195409D02*
Y196000D01*
X46704Y199839D02*
X52205D01*
X45118Y198253D02*
X46704Y199839D01*
X45118Y187724D02*
Y198253D01*
Y187724D02*
X45260Y187583D01*
X52205Y199839D02*
X56043Y196000D01*
X45260Y179236D02*
X45358Y179138D01*
Y171008D02*
Y179138D01*
Y171008D02*
X45457Y170909D01*
X48957Y195409D02*
X48978Y195388D01*
Y188610D02*
Y195388D01*
Y188610D02*
X49394Y188195D01*
X52740Y187583D02*
Y188370D01*
X55193Y190823D01*
Y194559D01*
X56043Y195409D01*
X49000Y177946D02*
X51450Y175496D01*
Y172003D02*
Y175496D01*
D15*
X6000Y124659D02*
Y126000D01*
Y124659D02*
X13559Y117100D01*
X21630Y115668D02*
Y115935D01*
X21236Y116328D02*
X21630Y115935D01*
X21236Y116328D02*
Y123441D01*
X13559Y115764D02*
Y117100D01*
X52046Y134213D02*
Y136618D01*
Y137310D01*
X51915Y136486D02*
X52046Y136618D01*
X49252Y135511D02*
Y135684D01*
X58065Y132299D02*
X60782Y135016D01*
X54501Y132299D02*
X58065D01*
X60782Y135016D02*
Y150782D01*
X48833Y123479D02*
Y126631D01*
X54501Y132299D01*
X48795Y123441D02*
X48833Y123479D01*
X50764Y119520D02*
Y123441D01*
Y119520D02*
X51417Y118866D01*
Y118600D02*
Y118866D01*
X50764Y123441D02*
Y125660D01*
X45736Y128158D02*
X45990D01*
X52046Y134213D01*
X44858Y123441D02*
Y127279D01*
X45736Y128158D01*
X45257Y129929D02*
X48795Y133468D01*
X43504Y129929D02*
X45257D01*
X48795Y133468D02*
Y135055D01*
X49252Y135511D01*
X42927Y123479D02*
Y129353D01*
X43504Y129929D01*
X43828Y134904D02*
Y136202D01*
X40921Y131997D02*
X43828Y134904D01*
X40921Y123441D02*
Y131997D01*
X43828Y136202D02*
X43935Y136309D01*
X38461Y127590D02*
Y134960D01*
X38854Y125844D02*
X38915Y125783D01*
X38854Y125844D02*
Y127196D01*
X38915Y123479D02*
X38953Y123441D01*
X38915Y123479D02*
Y125783D01*
X38461Y127590D02*
X38854Y127196D01*
X25361Y111599D02*
Y112204D01*
X25665Y112508D02*
Y118395D01*
X24174Y110411D02*
X25361Y111599D01*
Y112204D02*
X25665Y112508D01*
X24174Y110145D02*
Y110411D01*
X17902Y109804D02*
X19366Y111268D01*
X16438Y107927D02*
X17902Y109391D01*
X19366Y111268D02*
Y128636D01*
X17902Y109391D02*
Y109804D01*
X23894Y114204D02*
Y117661D01*
X23402Y113445D02*
Y113712D01*
X23894Y114204D01*
X16000Y126360D02*
Y143500D01*
Y126360D02*
X17594Y124766D01*
Y113021D02*
Y124766D01*
X42890Y123441D02*
X42927Y123479D01*
X40000Y136622D02*
X40307Y136315D01*
X40312D01*
X40998Y135629D01*
X41264D01*
X29700Y136000D02*
X29888Y136188D01*
X36984Y108579D02*
X52698D01*
X34186Y111377D02*
Y111998D01*
X31669Y114515D02*
X34186Y111998D01*
Y111377D02*
X36984Y108579D01*
X53386Y107890D02*
X58441D01*
X52698Y108579D02*
X53386Y107890D01*
X33085Y82315D02*
X33246Y82476D01*
X33047Y78559D02*
X33085Y78597D01*
Y82315D01*
X40000Y136622D02*
Y143500D01*
X13597Y98085D02*
X17435D01*
X19366Y100016D01*
X13559Y98047D02*
X13597Y98085D01*
X6000Y46000D02*
X21236Y61236D01*
Y78559D01*
X6000Y36000D02*
X13600Y43600D01*
Y49600D01*
X60782Y150782D02*
X66000Y156000D01*
X60248Y130248D02*
X66000Y136000D01*
X60248Y119950D02*
Y130248D01*
X29888Y136188D02*
Y141388D01*
X32000Y143500D01*
X31177Y119092D02*
X31669Y118600D01*
X58542Y118244D02*
X60248Y119950D01*
X54405Y116538D02*
X56112Y118244D01*
X58542D01*
X54405Y114989D02*
Y116538D01*
X55562Y113833D02*
X58403D01*
X54405Y114989D02*
X55562Y113833D01*
X62776Y122776D02*
X66000Y126000D01*
X58403Y113833D02*
X58441Y113795D01*
X62776Y119973D02*
Y122776D01*
X60240Y115855D02*
Y117437D01*
X62776Y119973D01*
X58441Y115764D02*
X60149D01*
X60240Y115855D01*
X58441Y101984D02*
X58479Y102022D01*
X61957D01*
X62217Y102282D01*
X62483D01*
X58479Y98085D02*
X61543D01*
X64908Y101450D01*
Y104908D01*
X66000Y106000D01*
X58441Y98047D02*
X58479Y98085D01*
X34622Y118600D02*
Y118866D01*
X35016Y119260D01*
X23188Y183064D02*
Y183612D01*
X26902Y179350D02*
X27000D01*
X23188Y183064D02*
X26902Y179350D01*
X23000Y183800D02*
X23188Y183612D01*
X35016Y119260D02*
Y123441D01*
X31177Y119092D02*
Y120678D01*
X33047Y126729D02*
X33933Y127614D01*
X33047Y123441D02*
Y126729D01*
X33933Y127614D02*
Y127760D01*
X31079Y123441D02*
X31116Y123403D01*
Y120739D02*
Y123403D01*
Y120739D02*
X31177Y120678D01*
X23205Y118350D02*
X23894Y117661D01*
X27142Y119424D02*
Y123441D01*
X27437Y111232D02*
Y119129D01*
X27142Y119424D02*
X27437Y119129D01*
X26945Y109955D02*
X27133Y110144D01*
X25173Y118887D02*
X25665Y118395D01*
X27133Y110928D02*
X27437Y111232D01*
X27133Y110144D02*
Y110928D01*
X25173Y118887D02*
Y123441D01*
X23205Y118350D02*
Y123441D01*
X10042Y109858D02*
X13559D01*
X8700Y111200D02*
X10042Y109858D01*
X19366Y128636D02*
X24000Y133270D01*
X7516Y116000D02*
X9720Y113795D01*
X6000Y116000D02*
X7516D01*
X9720Y113795D02*
X13559D01*
X24000Y133270D02*
Y143500D01*
X13597Y107927D02*
X16438D01*
X13559Y107890D02*
X13597Y107927D01*
X16438Y111864D02*
X17594Y113021D01*
X13597Y111864D02*
X16438D01*
X13559Y111827D02*
X13597Y111864D01*
X13521Y96041D02*
X13559Y96079D01*
X6041Y96041D02*
X13521D01*
X6000Y96000D02*
X6041Y96041D01*
X13521Y92104D02*
X13559Y92142D01*
X10680Y92104D02*
X13521D01*
X6000Y87424D02*
X10680Y92104D01*
X6000Y86000D02*
Y87424D01*
X13180Y80847D02*
X15485D01*
X19366Y84728D01*
Y87745D01*
X16975Y90136D02*
X19366Y87745D01*
X13597Y90136D02*
X16975D01*
X13559Y90173D02*
X13597Y90136D01*
X11742Y84563D02*
Y86145D01*
X8854Y81675D02*
X11742Y84563D01*
X14833Y82700D02*
X17594Y85462D01*
X16438Y88167D02*
X17594Y87011D01*
X11833Y86236D02*
X13559D01*
X11742Y86145D02*
X11833Y86236D01*
X8854Y79409D02*
Y81675D01*
X17594Y85462D02*
Y87011D01*
X12528Y82700D02*
X14833D01*
X10626Y80798D02*
X12528Y82700D01*
X13559Y88205D02*
X13597Y88167D01*
X16438D01*
X10626Y70626D02*
Y80798D01*
X12398Y80064D02*
X13180Y80847D01*
X6000Y76000D02*
Y76555D01*
X12398Y62398D02*
Y80064D01*
X6000Y76555D02*
X8854Y79409D01*
X6000Y66000D02*
X10626Y70626D01*
X6000Y56000D02*
X12398Y62398D01*
X44858Y78559D02*
Y83840D01*
X44465Y84234D02*
X44858Y83840D01*
X44465Y84234D02*
Y84500D01*
X30400Y37951D02*
Y39100D01*
X26500Y34150D02*
X26598D01*
X30400Y37951D01*
X52929Y59071D02*
Y71232D01*
X54701Y67299D02*
X66000Y56000D01*
X54701Y67299D02*
Y71966D01*
X53880Y72787D02*
X54701Y71966D01*
X50764Y73398D02*
X52929Y71232D01*
Y59071D02*
X66000Y46000D01*
X51157Y50842D02*
Y70499D01*
X48795Y72861D02*
X51157Y70499D01*
X54405Y77595D02*
Y87011D01*
Y77595D02*
X66000Y66000D01*
X52634Y75795D02*
Y88023D01*
X52634Y74033D02*
X53880Y72787D01*
X52634Y74033D02*
Y75795D01*
X52634Y88023D02*
X54746Y90136D01*
X45500Y34150D02*
Y38100D01*
X36787Y46813D02*
Y71232D01*
Y46813D02*
X45500Y38100D01*
X39000Y34150D02*
Y37700D01*
X35016Y41684D02*
Y71966D01*
Y41684D02*
X39000Y37700D01*
X32500Y34150D02*
X33244Y34894D01*
Y72700D01*
X7179Y26000D02*
X27142Y45963D01*
X6000Y26000D02*
X7179D01*
X27142Y45963D02*
Y78559D01*
X11799Y27949D02*
X29110Y45260D01*
X13571Y27215D02*
X30980Y44624D01*
X11799Y21799D02*
Y27949D01*
X29110Y45260D02*
Y78559D01*
X13571Y14891D02*
Y27215D01*
X30980Y44624D02*
Y76156D01*
X33244Y72700D02*
X35016Y74472D01*
X38559Y67993D02*
Y70499D01*
X40921Y72861D01*
X36787Y71232D02*
X38953Y73398D01*
X35016Y71966D02*
X36984Y73935D01*
X38559Y48012D02*
Y67993D01*
Y48012D02*
X58429Y28142D01*
X31041Y76217D02*
Y78521D01*
X31079Y78559D01*
X30980Y76156D02*
X31041Y76217D01*
X6000Y16000D02*
X11799Y21799D01*
X6000Y7321D02*
X13571Y14891D01*
X6000Y6000D02*
Y7321D01*
X61320Y92104D02*
X66000Y87424D01*
X58479Y92104D02*
X61320D01*
X58441Y92142D02*
X58479Y92104D01*
X66000Y86000D02*
Y87424D01*
X58441Y83559D02*
X66000Y76000D01*
X58441Y83559D02*
Y86236D01*
X54405Y87011D02*
X55562Y88167D01*
X58403D01*
X58441Y88205D01*
X54746Y90136D02*
X58403D01*
X58441Y90173D01*
X50764Y73398D02*
Y78559D01*
X51157Y50842D02*
X66000Y36000D01*
X48795Y72861D02*
Y78559D01*
X43283Y73315D02*
Y73581D01*
X42890Y73975D02*
X43283Y73581D01*
X42890Y73975D02*
Y78559D01*
X45941Y46059D02*
Y63000D01*
Y46059D02*
X66000Y26000D01*
X43283Y46211D02*
Y60500D01*
X60201Y21799D02*
Y29294D01*
X43283Y46211D02*
X60201Y29294D01*
Y21799D02*
X66000Y16000D01*
X58429Y14891D02*
Y28142D01*
Y14891D02*
X66000Y7321D01*
Y6000D02*
Y7321D01*
X35016Y74472D02*
Y78559D01*
X36984Y73935D02*
Y78559D01*
X38953Y73398D02*
Y78559D01*
X40921Y72861D02*
Y78559D01*
D16*
X35243Y91768D02*
X39253Y95778D01*
X29496Y91768D02*
X35243D01*
X19268Y81540D02*
X29496Y91768D01*
X19268Y79821D02*
Y81540D01*
X17978Y78629D02*
X18076D01*
X16600Y77251D02*
X17978Y78629D01*
X16600Y77153D02*
Y77251D01*
X18076Y78629D02*
X19268Y79821D01*
X29110Y120100D02*
Y123441D01*
Y131437D01*
X30650Y89800D02*
X41100D01*
X23205Y82355D02*
X30650Y89800D01*
X25173Y78559D02*
Y81540D01*
X23205Y78559D02*
Y82355D01*
X28633Y85000D02*
X40000D01*
X25173Y81540D02*
X28633Y85000D01*
X53260Y123753D02*
X53411Y123904D01*
Y125442D01*
X54976Y127007D02*
X55153D01*
X53411Y125442D02*
X54976Y127007D01*
X57000Y121200D02*
Y123047D01*
X56600Y120800D02*
X57000Y121200D01*
Y128854D02*
Y128953D01*
X55153Y127007D02*
X57000Y128854D01*
X36984Y115661D02*
Y125606D01*
X36295Y127111D02*
Y130157D01*
X36984Y125606D02*
Y126422D01*
X34953Y131500D02*
X36295Y130157D01*
X36984Y125606D02*
X36984Y125606D01*
X36295Y127111D02*
X36984Y126422D01*
X29047Y131500D02*
X29110Y131437D01*
X52713Y105921D02*
X58441D01*
X53450Y102851D02*
X54551Y103953D01*
X50226Y105455D02*
X52713D01*
X54551Y103953D02*
X58441D01*
X52627Y102701D02*
X52778Y102851D01*
X53450D01*
X44174Y106315D02*
X49367D01*
X50226Y105455D01*
X36450Y115127D02*
X36984Y115661D01*
X36450Y112314D02*
Y115127D01*
X13559Y103953D02*
X17900D01*
X29307Y107653D02*
Y119903D01*
X29110Y120100D02*
X29307Y119903D01*
X16600Y67600D02*
Y71247D01*
X17890Y94110D02*
X17900Y94100D01*
X13559Y94110D02*
X17890D01*
X46827Y78559D02*
Y88205D01*
X25221Y25539D02*
Y26669D01*
X18000Y19500D02*
X19181D01*
X25221Y25539D01*
X41020Y63220D02*
Y63236D01*
X41906Y64122D01*
X42000Y19500D02*
Y24949D01*
X52819Y19500D02*
X54000D01*
X51441Y20878D02*
X52819Y19500D01*
X45598Y27850D02*
X51441Y22008D01*
Y20878D02*
Y22008D01*
X39098Y27850D02*
X42000Y24949D01*
X41906Y64122D02*
Y68000D01*
X46827Y68984D02*
Y78559D01*
Y68984D02*
X47811Y68000D01*
X42890Y78559D02*
X42890Y78559D01*
X45500Y27850D02*
X45598D01*
X39000D02*
X39098D01*
X30000Y25449D02*
X32402Y27850D01*
X30000Y19500D02*
Y25449D01*
X32402Y27850D02*
X32500D01*
X25221Y26669D02*
X26402Y27850D01*
X26500D01*
X27000Y183192D02*
X27692Y182500D01*
X29441D01*
X27000Y183192D02*
Y185650D01*
X29441Y182500D02*
X30248Y181693D01*
Y176752D02*
Y181693D01*
Y176752D02*
X31500Y175500D01*
X36000D01*
D17*
X66000Y6000D02*
D03*
Y16000D02*
D03*
Y26000D02*
D03*
Y36000D02*
D03*
Y46000D02*
D03*
Y126000D02*
D03*
Y136000D02*
D03*
Y146000D02*
D03*
Y156000D02*
D03*
Y166000D02*
D03*
Y176000D02*
D03*
Y186000D02*
D03*
Y116000D02*
D03*
Y106000D02*
D03*
Y96000D02*
D03*
Y86000D02*
D03*
Y76000D02*
D03*
Y66000D02*
D03*
Y56000D02*
D03*
X6000Y6000D02*
D03*
Y16000D02*
D03*
Y26000D02*
D03*
Y36000D02*
D03*
Y46000D02*
D03*
Y126000D02*
D03*
Y136000D02*
D03*
Y146000D02*
D03*
Y156000D02*
D03*
Y166000D02*
D03*
Y176000D02*
D03*
Y186000D02*
D03*
Y116000D02*
D03*
Y106000D02*
D03*
Y96000D02*
D03*
Y86000D02*
D03*
Y76000D02*
D03*
Y66000D02*
D03*
Y56000D02*
D03*
D18*
X66000Y196000D02*
D03*
X6000D02*
D03*
D19*
X36000Y182500D02*
D03*
X54000Y12500D02*
D03*
X30000D02*
D03*
X18000D02*
D03*
X42000D02*
D03*
D20*
X19181Y26121D02*
D03*
X52819Y27602D02*
D03*
X21236Y47079D02*
D03*
X32981Y94394D02*
D03*
X51516Y166311D02*
D03*
X21630Y115668D02*
D03*
X14603Y119257D02*
D03*
X48978Y190823D02*
D03*
X18242Y177212D02*
D03*
X41200Y164400D02*
D03*
X19924Y194500D02*
D03*
X25600Y172299D02*
D03*
X34900Y164300D02*
D03*
X41107Y113712D02*
D03*
X42294Y100510D02*
D03*
X50200Y94394D02*
D03*
X25665Y96946D02*
D03*
X51915Y136486D02*
D03*
X49252Y135684D02*
D03*
X58110Y135545D02*
D03*
X53260Y123753D02*
D03*
X56600Y120800D02*
D03*
X51417Y118600D02*
D03*
X44319Y132193D02*
D03*
X38461Y134960D02*
D03*
X24174Y110145D02*
D03*
X21000Y109700D02*
D03*
X23402Y113445D02*
D03*
X43935Y136309D02*
D03*
X52627Y102701D02*
D03*
X52713Y105455D02*
D03*
X41264Y135629D02*
D03*
X29700Y136000D02*
D03*
X36450Y112314D02*
D03*
X33246Y82476D02*
D03*
X41100Y89800D02*
D03*
X44174Y106315D02*
D03*
X19366Y100016D02*
D03*
X13600Y49600D02*
D03*
X36000Y101000D02*
D03*
X31669Y118600D02*
D03*
Y114515D02*
D03*
X62483Y102282D02*
D03*
X34622Y118600D02*
D03*
X23000Y183800D02*
D03*
X33933Y127760D02*
D03*
X26945Y109955D02*
D03*
X8700Y111200D02*
D03*
X16600Y67600D02*
D03*
X17900Y94100D02*
D03*
X44465Y84500D02*
D03*
X30400Y39100D02*
D03*
X48000Y5500D02*
D03*
X41020Y63220D02*
D03*
X45941Y63000D02*
D03*
X43283Y73315D02*
D03*
Y60500D02*
D03*
X40000Y85000D02*
D03*
D21*
X45457Y170909D02*
D03*
X52543D02*
D03*
X56043Y195409D02*
D03*
X48957D02*
D03*
D22*
X29047Y131500D02*
D03*
X34953D02*
D03*
X47811Y68000D02*
D03*
X41906D02*
D03*
D23*
X56000Y143500D02*
D03*
X48000D02*
D03*
X40000D02*
D03*
X32000D02*
D03*
X24000D02*
D03*
X16000D02*
D03*
D24*
X36000Y175500D02*
D03*
Y189500D02*
D03*
X54000Y19500D02*
D03*
Y5500D02*
D03*
X30000D02*
D03*
Y19500D02*
D03*
X18000Y5500D02*
D03*
Y19500D02*
D03*
X42000Y5500D02*
D03*
Y19500D02*
D03*
D25*
X26500Y34150D02*
D03*
Y27850D02*
D03*
X32500Y34150D02*
D03*
Y27850D02*
D03*
X39000Y34150D02*
D03*
Y27850D02*
D03*
X45500Y34150D02*
D03*
Y27850D02*
D03*
X27000Y179350D02*
D03*
Y185650D02*
D03*
D26*
X45260Y187583D02*
D03*
X49000D02*
D03*
X52740D02*
D03*
X45260Y179236D02*
D03*
X52740D02*
D03*
D27*
X58441Y86236D02*
D03*
Y88205D02*
D03*
Y90173D02*
D03*
X58441Y92142D02*
D03*
X58441Y94110D02*
D03*
Y96079D02*
D03*
Y98047D02*
D03*
Y100016D02*
D03*
Y101984D02*
D03*
Y103953D02*
D03*
Y105921D02*
D03*
Y107890D02*
D03*
Y109858D02*
D03*
Y111827D02*
D03*
Y113795D02*
D03*
Y115764D02*
D03*
X13559D02*
D03*
Y113795D02*
D03*
Y111827D02*
D03*
Y109858D02*
D03*
Y107890D02*
D03*
Y105921D02*
D03*
Y103953D02*
D03*
Y101984D02*
D03*
Y100016D02*
D03*
Y98047D02*
D03*
Y96079D02*
D03*
Y94110D02*
D03*
Y92142D02*
D03*
Y90173D02*
D03*
Y88205D02*
D03*
Y86236D02*
D03*
D28*
X50764Y123441D02*
D03*
X48795D02*
D03*
X46827D02*
D03*
X44858D02*
D03*
X42890D02*
D03*
X40921D02*
D03*
X38953D02*
D03*
X36984D02*
D03*
X35016D02*
D03*
X33047D02*
D03*
X31079D02*
D03*
X29110D02*
D03*
X27142D02*
D03*
X25173D02*
D03*
X23205D02*
D03*
X21236D02*
D03*
Y78559D02*
D03*
X23205D02*
D03*
X25173D02*
D03*
X27142D02*
D03*
X29110D02*
D03*
X31079D02*
D03*
X33047D02*
D03*
X35016D02*
D03*
X36984D02*
D03*
X38953D02*
D03*
X40921D02*
D03*
X42890D02*
D03*
X44858Y78559D02*
D03*
X46827Y78559D02*
D03*
X48795D02*
D03*
X50764D02*
D03*
D29*
X16600Y77153D02*
D03*
Y71247D02*
D03*
X57000Y123047D02*
D03*
Y128953D02*
D03*
M02*
